<svg width="24" height="24" viewBox="0 0 24 24" fill="none" xmlns="http://www.w3.org/2000/svg">
<path fill-rule="evenodd" clip-rule="evenodd" d="M11.6647 18.6314L5.7334 21.8808C5.25983 22.1269 4.6764 21.9527 4.41532 21.4872V21.4872C4.33979 21.343 4.29904 21.1832 4.29633 21.0204V6.62223C4.29633 3.87623 6.17276 2.77783 8.87298 2.77783H15.2162C17.8341 2.77783 19.7929 3.803 19.7929 6.43916V21.0204C19.7929 21.2801 19.6897 21.5293 19.506 21.7129C19.3224 21.8966 19.0732 21.9998 18.8135 21.9998C18.6478 21.9972 18.4849 21.9565 18.3375 21.8808L12.3696 18.6314C12.1496 18.5126 11.8847 18.5126 11.6647 18.6314Z" stroke="#131313" stroke-width="1.5" stroke-linecap="round" stroke-linejoin="round"/>
<path d="M8.36957 9.32241H15.6648" stroke="#131313" stroke-width="1.5" stroke-linecap="round" stroke-linejoin="round"/>
</svg>
